# xmcd
#
# Track frame offsets:
#	150
#	17893
#	35006
#	64048
#
# Disc length: 1536 seconds
#
# Revision: 0
# Processed by: cddbd v1.5.2PL0 Copyright (c) Steve Scherf et al.
# Submitted via: audiograbber 1.83.01
#
DISCID=2f05fe04
DTITLE=LL Cool J - Control Myself
DYEAR=2006
DGENRE=R&B
TTITLE0=Control Myself (Radio Edit)
TTITLE1=Control Myself (Jason Nevins Funktek Edit)
TTITLE2=Control Myself (Instromental)
TTITLE3=Daten-CD
EXTD=
EXTT0=
EXTT1=
EXTT2=
EXTT3=
PLAYORDER=
